<svg version="1.1" xmlns="http://www.w3.org/2000/svg" viewBox="0 0 282.45195729537295 356" width="282.45195729537295" height="356">
  <!-- svg-source:excalidraw -->
  
  <defs>
    <style>
      @font-face {
        font-family: "Virgil";
        src: url("https://excalidraw.com/FG_Virgil.woff2");
      }
      @font-face {
        font-family: "Cascadia";
        src: url("https://excalidraw.com/Cascadia.woff2");
      }
    </style>
  </defs>
  <rect x="0" y="0" width="282.45195729537295" height="356" fill="#ffffff"></rect><g stroke-opacity="0.8" fill-opacity="0.8" transform="translate(10.597864768679756 10) rotate(0 130.72597864768647 21.22419928825616)"><path d="M-0.8629246577620506 1.7638451680541039 L260.02206443502 1.641737900674343 L261.7821607465892 45.69919223470926 L-0.939325176179409 44.282819220259185" stroke="none" stroke-width="0" fill="#fa5252"></path><path d="M-1.3413011888018052 2.0148408086483456 C68.99391275071525 -2.361741052656477, 135.5898211117189 0.6038974643476043, 261.9883223769487 -0.650517018411254 M0.19860463599575368 0.34293563855767756 C103.4935730283129 -5.710083734846361, 206.7329172931284 -3.338526389159096, 262.06522539995126 1.3518838337695913 M261.31012466801695 1.5972448959946632 C257.71917195382423 19.789730956036802, 263.7864796644718 31.741654577114097, 264.0054560030847 46.384518527820106 M260.74744680403165 0.5740724615752697 C260.7269600989565 14.293413327048325, 259.7017271878466 26.483560314347553, 262.7355908441394 40.72343107818007 M261.5099419122211 40.442716390230586 C207.33856291790747 38.66999926626886, 154.04141643672642 38.66576025778285, -0.8244716830342106 45.10526158805751 M262.0379215114204 43.36006889943292 C200.71160637572567 39.59546461987327, 143.51853538996582 38.42884310699896, -0.0071781859294999684 43.68018819853085 M-0.5306079760193825 45.470788144900794 C-1.9460819651202383 30.739401899548533, -1.2499748159960928 8.92809774648143, -3.558253325521946 -0.4462762698531151 M-0.5992150716483593 41.737675038560624 C0.6967020411375789 28.554197470947116, 1.9072403092268733 11.80417250953478, -1.724069993942976 1.4173223786056042" stroke="#000000" stroke-width="1" fill="none"></path></g><g stroke-opacity="0.8" fill-opacity="0.8" transform="translate(10 51.850533807829606) rotate(0 131.22597864768647 105.5231316725976)"><path d="M0.6560361012816429 3.518644966185093 L262.96312001599364 2.335687078535557 L264.40292528523497 210.22210197211638 L0.9063601121306419 209.95523600341215" stroke="none" stroke-width="0" fill="#4c6ef5"></path><path d="M1.2239728574911921 2.6981170334190128 C55.92754186353415 -3.357795377354022, 106.11186546679629 -2.19137301679702, 263.7231710898667 -2.699323727966319 M1.0161380980477457 1.5663377580456748 C97.60173597314643 2.6547644660180385, 193.86107819655814 1.675555293084879, 262.90884955655565 -0.7546583514031303 M264.7151626389855 -3.0413319000078225 C255.4196520474219 71.36082011736839, 257.56421125343076 149.5991110304972, 260.23498968733804 210.38787348879183 M261.99629512029594 1.4683730243677087 C260.7306310317908 47.23984006775658, 260.3079832294075 96.3137919609413, 263.45966608839404 209.56138128390452 M262.43763092705524 213.50469392756975 C166.39030073025228 210.01430151756782, 66.28734023787216 210.66844715800823, 2.4054566217766418 209.26895050325462 M261.03598760811667 210.86867237219693 C158.90518401776416 208.5607679922341, 54.36030234198497 208.1449927753536, -0.5656499937994507 211.5748062690288 M-3.0397494883205463 213.5451786968269 C-4.248492502917953 141.38825434181413, -4.748310175568904 70.06766117110011, 0.2910948440035853 2.8657764458101864 M-1.6101887752822401 211.19008907133374 C-2.2778540034902344 153.88662243232167, -0.3705217458747201 94.01968001922273, 1.2851488945093281 1.6612604454935112" stroke="#000000" stroke-width="1" fill="none"></path></g><g stroke-opacity="0.8" fill-opacity="0.8" transform="translate(11.793594306048817 262.8967971530251) rotate(0 129.72597864768647 41.551601423487455)"><path d="M1.8118483610451221 -0.26776399090886116 L258.21635213373594 0.10324261710047722 L259.0763273525088 83.07023085016088 L0.4087417908012867 81.47818661588506" stroke="none" stroke-width="0" fill="#12b886"></path><path d="M-0.20517050358460656 1.4920001777911849 C67.76606954023043 -1.706290316543054, 138.38531939756055 0.3035685952744578, 259.3666005807155 -0.5299405592980292 M0.7037688356826031 -0.08021275657274762 C66.48076155596013 0.2452393815279434, 134.3390758078271 0.24459957408682764, 259.3816293471628 -0.6731620716829999 M258.31558292238407 -1.9273585490882397 C260.1732531025607 31.710081673026334, 259.3208519652087 65.41644966003349, 261.4347711118906 83.50893996763305 M258.90991788050525 -0.7845950815826654 C260.54005630400906 31.428243184178417, 258.96003033307323 60.479145643665085, 259.29941760441653 83.85978068704979 M260.42855462314975 84.66676159417293 C161.32895432167624 81.91610507794843, 62.95161628130421 83.28457972858047, 0.17085248766487568 84.46853375376527 M259.4089657800365 83.73937192775958 C182.60063459086408 85.05055304877251, 106.39162639804712 85.17297623814385, 0.43332352397229484 82.69283307729152 M0.9790066294372082 84.73221241045074 C2.6786297628538023 57.37918902799686, 0.8999056884900938 31.722290676060545, 0.014538507908582687 1.7883152551949024 M-0.2586559262126684 83.52298863525765 C-1.0640671432487574 59.905366563747805, -0.6206899464599696 34.20869442815105, 0.5408970508724451 -0.35845733620226383" stroke="#000000" stroke-width="1" fill="none"></path></g><g stroke-opacity="0.8" fill-opacity="0.8" transform="translate(17.77224199288412 20.163701067615875) rotate(0 13.750889679715272 11.06049822064054)"><path d="M1.4846698325127363 -1.5025147777050734 L27.61094475783455 1.522946359589696 L25.645503113642807 21.81033602129543 L0.11086687259376049 21.775803414693716" stroke="none" stroke-width="0" fill="#ced4da"></path><path d="M1.158855201676488 -0.9005598742514849 C10.352848506929645 -2.148335472806439, 17.235320282031434 1.314769788519397, 25.734092100188608 -0.031690867617726326 M-0.4297133246436715 -0.6918938746675849 C5.435081730392548 0.4222090315231488, 12.229853248746638 0.35244677180139283, 26.54898196052807 -0.48324242141097784 M26.04000745587098 -1.1915567237883806 C25.961623842010344 4.868408712247552, 27.900416964778746 9.671505785856727, 27.452028914019937 20.617246025762203 M28.490739401095087 0.09017118904739618 C28.03359094102354 6.630918620978183, 27.064444719147396 14.122808364005161, 26.80745234679478 22.261769500150027 M28.954157038256998 21.84393107291186 C23.07408850469963 20.630353310326875, 14.5901400425534 23.71548692248279, 1.9835416693240404 21.660916382035854 M27.205912973396952 22.354676213635745 C19.92882581210734 22.401958400765743, 12.445667750854348 23.058749104300823, -0.05357150826603174 22.17072093166286 M1.9118630308657885 21.661359363755825 C0.8591428098411322 13.896034300376314, -1.8396563830642938 8.968933648007546, -0.6084237080067396 -1.220809193328023 M0.01863331999629736 21.56998598255092 C0.0468794495250463 17.57577805881354, 0.508864590563941 13.283017621953604, -0.3302440205588937 0.7908836016431451" stroke="#000000" stroke-width="1" fill="none"></path></g><g transform="translate(55 18) rotate(0 44 12.5)"><text x="0" y="18" font-family="Virgil, Segoe UI Emoji" font-size="16px" fill="#000000" text-anchor="start" style="white-space: pre;" direction="ltr">Site Title </text></g><g transform="translate(116.72597864768647 132.87366548042723) rotate(0 23.75 19)"><text x="23.74999999999999" y="28" font-family="Virgil, Segoe UI Emoji" font-size="23.74999999999999px" fill="#000000" text-anchor="middle" style="white-space: pre;" direction="ltr">Main</text></g><g transform="translate(97.01957295373529 284.94839857651255) rotate(0 32 16)"><text x="32" y="23" font-family="Virgil, Segoe UI Emoji" font-size="20px" fill="#000000" text-anchor="middle" style="white-space: pre;" direction="ltr">Footer</text></g><g transform="translate(197 19) rotate(0 34.5 11.5)"><path d="M4.878727437928319 -1.197843762114644 L64.64938396401703 2.2883270662277937 L69.08581388182938 4.946889786049724 L69.44186240620911 20.296460120007396 L63.192077876999974 23.04120066575706 L4.03171175904572 22.883320895954967 L-0.4670313578099013 20.304327158257365 L-0.30811875872313976 4.549397675320506 L3.1626853961497545 1.861757544800639 L5.085945071652532 1.4045537393540144" stroke="none" stroke-width="0" fill="#ced4da"></path><path d="M4.9635523576289415 1.3858551066368818 M5.330233125016093 1.4331776518374681 C25.6775076945778 1.2537487013498323, 43.401031577493995 -1.6251652376493437, 62.82813045196235 -0.06495332531630993 M5.731253326870501 -0.92065863404423 C25.721422813134268 -0.4660613976651802, 43.6581874913536 -1.4008352898294105, 62.51894530747086 -0.741063074208796 M63.25 0 C68.96700134066243 -1.4616182167083025, 67.22706127353013 0.3914012393603721, 69.28868973441422 5.092169908806682 M65.16255849786103 1.1112502496689558 C66.80375258441393 0.75766891175881, 67.8360395095311 0.7798312429028251, 70.3349220356904 6.971584811154752 M69.40124778863974 6.082005428848788 C68.78071159475948 10.723867783602326, 69.50188155376819 13.877588840061799, 69.80778592494316 17.984382931469007 M69.0810782408109 6.0277621826389804 C68.89497445826419 8.874686797964388, 68.92651791055687 11.857157358457336, 68.50972425320651 16.999426531628707 M69 17.25 C68.17716020531952 21.78360431206723, 65.86374779728551 24.386589435860515, 64.1825504321605 22.141910819336772 M69.05865842290223 16.750731913372874 C68.25567621504888 22.429909957790127, 65.0835724871916 23.544195892754942, 63.05471898531541 21.99014016026631 M63.284886149689555 22.989331664517522 C51.328929990762845 22.64574547649827, 38.220170410815626 23.821709772362375, 7.59239193610847 21.101147891953588 M62.48673588130623 23.477726533077657 C44.87153727817349 23.058375773229635, 26.613944609183818 21.986482587852514, 5.18987509701401 23.21080796327442 M5.75 23 C3.183835488433639 22.506195513531566, -0.4363663177937269 21.244807112341125, -0.17760956101119518 15.858880428597331 M4.250786485150456 22.46442469768226 C2.233408180034409 22.029591774288566, -0.7754633166827261 18.893573741459598, -0.8687309064902364 16.340412809792905 M-0.20994291785173114 16.895412379084156 C0.2486237597512081 13.437308399379253, 0.5846895393775776 9.56118641239591, 0.725852992804721 5.199815676687285 M-0.013119029463268816 17.63132877855096 C0.17693809879943728 13.798490092321298, -0.033971547205001104 10.326438440126367, -0.24942996820900587 6.016004583076574 M0 5.75 C-1.2257006745785475 0.11940408560136939, 2.25461606370906 1.155344633385539, 7.688190223649144 -1.6197142321616411 M1.6407981533557177 4.717660633847117 C-1.4858135649003086 3.4100753638582924, 3.6478888036372754 -0.37622629171237354, 5.688424899335951 -0.6916841543279588" stroke="#ced4da" stroke-width="1" fill="none"></path></g><g transform="translate(191.5 12.5) rotate(0 32.639999999999986 16)"><text x="32.64000000000001" y="23.000000000000014" font-family="Virgil, Segoe UI Emoji" font-size="20.480000000000004px" fill="#000000" text-anchor="middle" style="white-space: pre;" direction="ltr"> Menu </text></g><g><g transform="translate(255 19) rotate(5.874498139762341 0.6637158065755102 12.425699205575512)"><path d="M0.47802241332829 1.0199137698858978 C0.9851031391570966 5.146963585540653, 1.8692680248369775 20.40349357239902, 2.0575861621648075 24.341633857414127 M-0.7301545490138233 0.5097645537368956 C-0.2023777309370537 4.2978832708112895, 1.3495148689237733 18.708904486130923, 1.6647734336741267 22.398416883777827" stroke="#000000" stroke-width="1" fill="none"></path></g><g transform="translate(255 19) rotate(5.874498139762341 0.6637158065755102 12.425699205575512)"><path d="M-2.5109326727913657 12.628885897020215 C-2.09531014642565 14.517841547700428, -0.655472942252437 17.145617772500678, 2.5497514113750444 22.536445270112992 M-3.317734457037378 11.26135319580612 C-2.3441323487169465 14.33434752678865, -1.3880650596704163 16.50858601308313, 2.1057745350522024 22.708087794320406" stroke="#000000" stroke-width="1" fill="none"></path></g><g transform="translate(255 19) rotate(5.874498139762341 0.6637158065755102 12.425699205575512)"><path d="M5.664945112603364 11.82191588613767 C4.296009374062763 13.91929937155237, 3.9541171805721067 16.72293465750334, 2.5497514113750444 22.536445270112992 M4.858143328357352 10.454383184923575 C3.800140960718377 13.802186236561393, 2.7176187212047545 16.177636220535792, 2.1057745350522024 22.708087794320406" stroke="#000000" stroke-width="1" fill="none"></path></g></g></svg>