<svg version="1.1" xmlns="http://www.w3.org/2000/svg" viewBox="0 0 745 357" width="745" height="357">
  <!-- svg-source:excalidraw -->
  
  <defs>
    <style>
      @font-face {
        font-family: "Virgil";
        src: url("https://excalidraw.com/FG_Virgil.woff2");
      }
      @font-face {
        font-family: "Cascadia";
        src: url("https://excalidraw.com/Cascadia.woff2");
      }
    </style>
  </defs>
  <rect x="0" y="0" width="745" height="357" fill="#ffffff"></rect><g transform="translate(10 11) rotate(0 362.5 168)"><path d="M-1.7400063257664442 0.1546489279717207 L726.0584021229297 -1.8711240608245134 L723.970459939912 335.07175949029624 L0.9023560900241137 337.63082155399024" stroke="none" stroke-width="0" fill="#ced4da"></path><path d="M0.2092916361987591 0.31657095029950144 C223.93130955817182 2.4990431259386243, 448.13934966642415 1.9796301077120007, 725.4836115472019 0.4129949815571308 M-0.28509379588067535 -0.16262095607817173 C188.29222784927114 -1.7077146998606623, 376.97359040323647 -1.6294571272097529, 724.8080824378878 -0.05264071859419346 M724.0862982609852 0.5322696167022637 C724.5490270000356 83.23798186026757, 724.3962056428932 165.26403656974398, 725.4524627155099 335.32609238002306 M725.0356591881399 0.3774754999713275 C723.9113793214841 112.32289809401429, 723.5556123624891 223.94557559683142, 725.5397842366555 335.6328475985113 M725.6510890357197 335.91884322240946 C560.1098549517803 333.7170309667476, 396.49893016349523 334.02895797537644, -0.7297683604061604 336.55147483423355 M724.7879715088754 336.37270492874086 C557.7334424235858 334.39027584036813, 391.32995131742206 334.53959435662256, -0.10360491238534451 335.68727424703536 M1.300067684399671 335.62744005652405 C-0.5708588497959006 268.61300143308097, -1.6660832111330137 199.23083314678917, 1.0725099810279792 0.5761278015937976 M0.17587446391089817 335.4594354429667 C-0.7467537839110541 217.39542568543973, -0.8519340522222565 97.87426236708244, 0.45733126963402887 0.03142690420887209" stroke="#ced4da" stroke-width="1" fill="none"></path></g><g stroke-opacity="0.8" fill-opacity="0.8" transform="translate(145.59786476867976 10) rotate(0 216.72597864768647 21.22419928825616)"><path d="M-0.8629246577620506 1.7638451680541039 L432.02206443502 1.641737900674343 L433.7821607465892 45.69919223470926 L-0.939325176179409 44.282819220259185" stroke="none" stroke-width="0" fill="#fa5252"></path><path d="M-0.8591507419035236 1.2905766355982162 C111.89399956078299 -1.6806668427084164, 222.25199269160888 0.21892927587685662, 433.7955180568292 -0.41667910507718237 M0.1272132775142452 0.21966237766119154 C171.59464003496453 -5.398732470947335, 343.02643757594217 -3.8796663059243235, 433.84477715673825 0.8659292994350329 M433.31012466801695 1.5972448959946632 C429.71917195382423 19.789730956036802, 435.7864796644718 31.741654577114097, 436.0054560030847 46.384518527820106 M432.74744680403165 0.5740724615752697 C432.7269600989565 14.293413327048325, 431.7017271878466 26.483560314347553, 434.7355908441394 40.72343107818007 M433.4890984885666 41.163688361720105 C344.34523865912536 39.422116971467354, 255.76135560337576 39.419401736950235, -0.5281032061039619 44.15021308809431 M433.8272880526623 43.03235558844068 C334.119323629145 38.92005410826333, 237.0588479333885 38.17279186271061, -0.0045978813843895044 43.23740329555806 M-0.5306079760193825 45.470788144900794 C-1.9460819651202383 30.739401899548533, -1.2499748159960928 8.92809774648143, -3.558253325521946 -0.4462762698531151 M-0.5992150716483593 41.737675038560624 C0.6967020411375789 28.554197470947116, 1.9072403092268733 11.80417250953478, -1.724069993942976 1.4173223786056042" stroke="#000000" stroke-width="1" fill="none"></path></g><g stroke-opacity="0.8" fill-opacity="0.8" transform="translate(145 51.850533807829606) rotate(0 216.72597864768647 105.5231316725976)"><path d="M0.6560361012816429 3.518644966185093 L433.96312001599364 2.335687078535557 L435.40292528523497 210.22210197211638 L0.9063601121306419 209.95523600341215" stroke="none" stroke-width="0" fill="#4c6ef5"></path><path d="M0.7856397227304757 1.7318585988700659 C89.18143190300012 -3.0245437396287898, 174.67642552106204 -2.275844342966536, 434.26791987732463 -1.7326331480471686 M0.6522354223135611 1.0053957932168722 C161.01466844099016 2.6392656747173904, 321.1676855415262 2.0107340709241406, 433.7452258161546 -0.48439765173212573 M435.7151626389855 -3.0413319000078225 C426.4196520474219 71.36082011736839, 428.56421125343076 149.5991110304972, 431.23498968733804 210.38787348879183 M432.99629512029594 1.4683730243677087 C431.7306310317908 47.23984006775658, 431.3079832294075 96.3137919609413, 434.45966608839404 209.56138128390452 M433.4427615326042 212.62427278328664 C272.63209992278615 210.40247467592016, 109.2182235101125 210.8223555551697, 1.544006684303771 209.90544755030118 M432.5430792710915 210.93227182820047 C261.7170234908452 208.436978553344, 89.34142710920696 208.1701021074253, -0.3630775809865487 211.38552276062288 M-3.0397494883205463 213.5451786968269 C-4.248492502917953 141.38825434181413, -4.748310175568904 70.06766117110011, 0.2910948440035853 2.8657764458101864 M-1.6101887752822401 211.19008907133374 C-2.2778540034902344 153.88662243232167, -0.3705217458747201 94.01968001922273, 1.2851488945093281 1.6612604454935112" stroke="#000000" stroke-width="1" fill="none"></path></g><g stroke-opacity="0.8" fill-opacity="0.8" transform="translate(146.79359430604882 262.8967971530251) rotate(0 216.72597864768647 41.551601423487455)"><path d="M1.8118483610451221 -0.26776399090886116 L432.21635213373594 0.10324261710047722 L433.0763273525088 83.07023085016088 L0.4087417908012867 81.47818661588506" stroke="none" stroke-width="0" fill="#12b886"></path><path d="M-0.13087192600709607 0.9517008217993772 C114.3997430142345 -1.2113968799010628, 230.61944161087752 0.07063003038341753, 433.3975108839752 -0.3380327115881499 M0.44891239910405956 -0.05116523944527397 C111.58063036329254 0.4433871718404536, 224.03995903525913 0.44297905843901647, 433.4070972698158 -0.42938928986813113 M432.31558292238407 -1.9273585490882397 C434.1732531025607 31.710081673026334, 433.3208519652087 65.41644966003349, 435.4347711118906 83.50893996763305 M432.90991788050525 -0.7845950815826654 C434.54005630400906 31.428243184178417, 432.96003033307323 60.479145643665085, 433.29941760441653 83.85978068704979 M434.07489856123004 84.10054866957589 C269.87206145498095 82.14089954979357, 106.12993313260247 83.01380725383032, 0.10898152382116347 83.97410525393316 M433.4245343358552 83.50899545075491 C305.47898947438483 85.08996812590667, 177.91573423770467 85.1680580964484, 0.2764036894955065 82.84144064824147 M0.9790066294372082 84.73221241045074 C2.6786297628538023 57.37918902799686, 0.8999056884900938 31.722290676060545, 0.014538507908582687 1.7883152551949024 M-0.2586559262126684 83.52298863525765 C-1.0640671432487574 59.905366563747805, -0.6206899464599696 34.20869442815105, 0.5408970508724451 -0.35845733620226383" stroke="#000000" stroke-width="1" fill="none"></path></g><g stroke-opacity="0.8" fill-opacity="0.8" transform="translate(152.77224199288412 20.163701067615875) rotate(0 13.750889679715272 11.06049822064054)"><path d="M1.4846698325127363 -1.5025147777050734 L27.61094475783455 1.522946359589696 L25.645503113642807 21.81033602129543 L0.11086687259376049 21.775803414693716" stroke="none" stroke-width="0" fill="#ced4da"></path><path d="M1.158855201676488 -0.9005598742514849 C10.352848506929645 -2.148335472806439, 17.235320282031434 1.314769788519397, 25.734092100188608 -0.031690867617726326 M-0.4297133246436715 -0.6918938746675849 C5.435081730392548 0.4222090315231488, 12.229853248746638 0.35244677180139283, 26.54898196052807 -0.48324242141097784 M26.04000745587098 -1.1915567237883806 C25.961623842010344 4.868408712247552, 27.900416964778746 9.671505785856727, 27.452028914019937 20.617246025762203 M28.490739401095087 0.09017118904739618 C28.03359094102354 6.630918620978183, 27.064444719147396 14.122808364005161, 26.80745234679478 22.261769500150027 M28.954157038256998 21.84393107291186 C23.07408850469963 20.630353310326875, 14.5901400425534 23.71548692248279, 1.9835416693240404 21.660916382035854 M27.205912973396952 22.354676213635745 C19.92882581210734 22.401958400765743, 12.445667750854348 23.058749104300823, -0.05357150826603174 22.17072093166286 M1.9118630308657885 21.661359363755825 C0.8591428098411322 13.896034300376314, -1.8396563830642938 8.968933648007546, -0.6084237080067396 -1.220809193328023 M0.01863331999629736 21.56998598255092 C0.0468794495250463 17.57577805881354, 0.508864590563941 13.283017621953604, -0.3302440205588937 0.7908836016431451" stroke="#000000" stroke-width="1" fill="none"></path></g><g transform="translate(190 18) rotate(0 186 12.5)"><text x="0" y="18" font-family="Virgil, Segoe UI Emoji" font-size="16px" fill="#000000" text-anchor="start" style="white-space: pre;" direction="ltr">Site Title                       Docs  GitHub</text></g><g transform="translate(329.7259786476865 133.87366548042723) rotate(0 23.75 19)"><text x="23.74999999999999" y="28" font-family="Virgil, Segoe UI Emoji" font-size="23.74999999999999px" fill="#000000" text-anchor="middle" style="white-space: pre;" direction="ltr">Main</text></g><g transform="translate(320.0195729537353 285.94839857651255) rotate(0 32 16)"><text x="32" y="23" font-family="Virgil, Segoe UI Emoji" font-size="20px" fill="#000000" text-anchor="middle" style="white-space: pre;" direction="ltr">Footer</text></g></svg>